<?xml version="1.0" encoding="UTF-8"?> <svg xmlns="http://www.w3.org/2000/svg" width="361" height="259" viewBox="0 0 361 259" fill="none"><path d="M218.53 237.36C236.38 228.87 286.51 197.82 298.77 139.65H242.18C230.62 139.65 221.25 130.28 221.25 118.72V20.93C221.25 9.37 230.62 0 242.18 0H340C351.56 0 360.93 9.37 360.93 20.93V84.99H360.92C359.54 203.95 260.48 247.08 226.92 258.28C220.96 260.27 214.53 256.99 212.66 250.99L212.61 250.84C210.94 245.5 213.48 239.76 218.53 237.36Z" fill="#BFD1F7"></path><path d="M6.63996 237.36C24.49 228.87 74.62 197.82 86.88 139.65H30.29C18.73 139.65 9.35993 130.28 9.35993 118.72V20.93C9.35993 9.37 18.73 0 30.29 0H128.11C139.67 0 149.04 9.37 149.04 20.93V84.99H149.03V85C147.65 203.95 48.5899 247.08 15.0299 258.28C9.06995 260.27 2.63994 256.99 0.769936 250.99L0.719949 250.84C-0.950051 245.5 1.58996 239.76 6.63996 237.36Z" fill="#BFD1F7"></path></svg> 