<?xml version="1.0" encoding="UTF-8"?> <svg xmlns="http://www.w3.org/2000/svg" width="105" height="96" viewBox="0 0 105 96" fill="none"><path d="M49.7 0.0959473C36.777 0.0959473 26.2999 10.5731 26.2999 23.4961C26.2999 36.4191 36.777 46.8962 49.7 46.8962C62.6231 46.8962 73.1002 36.4203 73.1002 23.4961C73.1002 10.5718 62.6231 0.0959473 49.7 0.0959473ZM50.85 43.5996C48.7297 43.5996 46.6854 43.2841 44.7608 42.7028C44.5762 42.9922 44.3742 43.2317 44.1447 43.3813C42.0206 44.7733 33.7374 39.1394 34.7128 36.9753C34.8051 36.772 34.9211 36.5712 35.052 36.3729C33.226 34.2426 31.8528 31.7355 31.0458 28.9915C30.8525 28.9629 30.6741 28.918 30.5207 28.8456C28.2207 27.7667 28.6747 17.7598 31.0296 17.4555C31.0658 17.4505 31.1044 17.4543 31.1406 17.4505C31.9538 14.8612 33.2859 12.4964 35.0146 10.467C34.8999 10.2887 34.7964 10.1066 34.714 9.92322C33.7374 7.7592 42.0206 2.12526 44.1459 3.51722C44.3517 3.65192 44.5338 3.86396 44.7035 4.11217C46.6455 3.51847 48.7097 3.19915 50.8513 3.19915C62.2401 3.19915 71.4725 12.2431 71.4725 23.4C71.4725 34.5569 62.2389 43.5996 50.85 43.5996Z" fill="#AFAFAF"></path><path d="M37.0988 33.7113C35.1156 30.9012 33.6949 27.7618 33.5428 24.5638C33.216 17.7137 38.24 10.2937 43.3214 6.10911C45.922 3.96754 48.8244 2.50823 51.9064 1.65135C51.2391 1.59023 50.5656 1.54907 49.8821 1.54907C37.7623 1.54907 27.9363 11.3751 27.9363 23.4949C27.9363 35.6146 37.7623 45.4407 49.8821 45.4407C50.946 45.4407 51.9825 45.3396 53.0065 45.1924C50.6616 44.6237 48.3978 43.7182 46.2625 42.4135C42.4982 40.5913 39.3439 37.7312 37.0988 33.7113Z" fill="#808080"></path><path d="M53.3521 1.62524C53.3521 1.62524 72.2857 4.57505 72.2857 23.2243C72.2857 38.5308 58.1042 45.1938 53.0066 45.1938C53.0066 45.1938 57.3558 47.056 63.0297 45.1938C68.7035 43.3316 73.3933 39.4526 75.6072 34.6568C77.8211 29.861 78.9362 24.4828 78.3737 19.3976C77.8111 14.3125 73.2087 5.61776 65.7625 3.29908C60.4565 1.64769 53.3521 1.62524 53.3521 1.62524Z" fill="#808080"></path><path d="M56.2832 0C43.3602 0 32.8831 10.4771 32.8831 23.4001C32.8831 36.3231 43.3589 46.8002 56.2832 46.8002C69.2074 46.8002 79.6833 36.3244 79.6833 23.4001C79.6833 10.4759 69.2062 0 56.2832 0ZM35.9102 23.4001C35.9102 17.044 38.4484 11.6895 43.0084 7.95389C44.5812 10.4447 47.4587 15.0134 46.5233 19.7793C44.4677 24.5638 39.0608 27.2392 36.5189 28.2682C36.1359 26.7054 35.9102 25.0802 35.9102 23.4001ZM54.8688 43.7008C46.9274 43.1544 40.3792 38.3924 37.5304 31.3328C40.6498 30.3898 47.8117 28.388 51.9589 31.7369C54.9261 35.4114 55.0733 40.7098 54.8688 43.7008ZM45.6077 6.06301C48.7995 3.98755 52.1934 3.02714 56.2832 3.02714C60.373 3.02714 64.1747 4.24449 67.3652 6.3187C65.6427 8.43408 61.4806 12.837 56.2832 13.3907C51.0858 12.837 47.3302 8.17839 45.6077 6.06301ZM58.1142 43.6808C57.9121 40.6861 58.0655 35.4039 61.0253 31.7382C65.0141 28.5164 71.7581 30.3275 75.0559 31.2804C72.2795 38.2751 65.9146 42.9848 58.1142 43.6808ZM66.4597 19.7793C65.5542 15.1631 68.1697 10.6854 69.7462 8.1285C74.1479 11.8653 76.6561 17.1725 76.6561 23.4001C76.6561 25.0241 76.4453 26.5956 76.0874 28.1098C73.4232 26.9823 68.4216 24.3443 66.4597 19.7793Z" fill="#CCCCCC"></path><path d="M60.3354 23.1283C60.3354 25.3659 58.5206 27.1807 56.283 27.1807C54.0454 27.1807 52.2306 25.3659 52.2306 23.1283C52.2306 20.8907 54.0454 19.0759 56.283 19.0759C58.5206 19.0759 60.3354 20.8895 60.3354 23.1283Z" fill="#5B5B5B"></path><path d="M58.139 23.1282C58.139 24.1534 57.3083 24.9841 56.2831 24.9841C55.2578 24.9841 54.4271 24.1534 54.4271 23.1282C54.4271 22.1029 55.2578 21.2722 56.2831 21.2722C57.3083 21.2722 58.139 22.1029 58.139 23.1282Z" fill="#CCCCCC"></path><path d="M23.4001 31.6995C10.4771 31.6995 0 42.1753 0 55.0996C0 68.0226 10.4759 78.4997 23.4001 78.4997C36.3231 78.4997 46.8002 68.0226 46.8002 55.0996C46.799 42.1753 36.3231 31.6995 23.4001 31.6995ZM24.5501 75.2031C22.4297 75.2031 20.3854 74.8876 18.4609 74.3064C18.2763 74.5957 18.0742 74.8352 17.8447 74.9849C15.7206 76.3768 7.43749 70.7429 8.41286 68.5789C8.50516 68.3756 8.61991 68.1747 8.75212 67.9764C6.92736 65.8461 5.55287 63.3391 4.74588 60.5951C4.55255 60.5664 4.37418 60.5215 4.22077 60.4491C1.9208 59.3702 2.37481 49.3634 4.72966 49.059C4.76583 49.054 4.8045 49.0578 4.84067 49.054C5.65389 46.4647 6.98598 44.0999 8.7147 42.0706C8.59996 41.8922 8.49643 41.7101 8.41411 41.5267C7.43749 39.3627 15.7206 33.7288 17.846 35.1207C18.0518 35.2554 18.2339 35.4675 18.4035 35.7157C20.3455 35.122 22.4098 34.8027 24.5513 34.8027C35.9402 34.8027 45.1725 43.8467 45.1725 55.0035C45.1713 66.1592 35.939 75.2031 24.5501 75.2031Z" fill="#AFAFAF"></path><path d="M10.799 65.3148C8.81579 62.5047 7.39514 59.3653 7.24298 56.1673C6.91619 49.3173 11.9402 41.8972 17.0216 37.7126C19.6222 35.5711 22.5246 34.1117 25.6066 33.2549C24.9393 33.1937 24.2658 33.1526 23.5823 33.1526C11.4625 33.1526 1.63647 42.9774 1.63647 55.0984C1.63647 67.2181 11.4625 77.0442 23.5823 77.0442C24.6462 77.0442 25.6827 76.9431 26.7067 76.7972C24.3618 76.2285 22.098 75.3229 19.9627 74.0183C16.1984 72.1935 13.044 69.3348 10.799 65.3148Z" fill="#808080"></path><path d="M27.0508 33.2288C27.0508 33.2288 45.9857 36.1786 45.9857 54.8278C45.9857 70.1344 31.8042 76.7973 26.7065 76.7973C26.7065 76.7973 31.0558 78.6595 36.7296 76.7973C42.4035 74.9351 47.0932 71.0561 49.3059 66.2603C51.5198 61.4646 52.6349 56.0863 52.0723 51.0012C51.5098 45.916 46.9074 37.2213 39.4612 34.9026C34.1565 33.2512 27.0508 33.2288 27.0508 33.2288Z" fill="#808080"></path><path d="M29.9831 31.6995C17.0601 31.6995 6.58301 42.1766 6.58301 55.0996C6.58301 68.0226 17.0589 78.4997 29.9831 78.4997C42.9061 78.4997 53.3832 68.0226 53.3832 55.0996C53.3832 42.1753 42.9061 31.6995 29.9831 31.6995ZM10.805 60.4491C8.50505 59.3702 8.95906 49.3634 11.3139 49.059C14.6853 48.6237 20.1159 52.6674 20.0785 55.0983C20.0398 57.5305 13.0888 61.5205 10.805 60.4491ZM24.429 74.9849C22.3049 76.3768 14.0218 70.7429 14.9971 68.5789C16.3953 65.4806 22.6853 62.9761 24.7358 64.2832C26.7864 65.5916 26.5394 73.6016 24.429 74.9849ZM24.7358 45.8223C22.6853 47.1295 16.3953 44.6262 14.9971 41.528C14.0205 39.364 22.3037 33.73 24.429 35.122C26.5394 36.504 26.7864 44.5152 24.7358 45.8223ZM35.3551 35.1207C37.4792 33.7288 45.7624 39.3627 44.787 41.5267C43.3888 44.625 37.0988 47.1282 35.0483 45.8211C32.9978 44.5152 33.2447 36.504 35.3551 35.1207ZM35.3551 74.9849C33.2447 73.6016 32.9978 65.5916 35.0483 64.2845C37.0988 62.9774 43.3888 65.4819 44.787 68.5801C45.7636 70.7429 37.4805 76.3768 35.3551 74.9849ZM49.2697 60.4491C46.986 61.5205 40.0349 57.5305 39.9975 55.0996C39.9601 52.6686 45.3907 48.625 48.7621 49.0603C51.1169 49.3634 51.5697 59.3702 49.2697 60.4491Z" fill="#CCCCCC"></path><path d="M38.4808 55.0536C38.4808 59.7471 34.6766 63.5525 29.9832 63.5525C25.2897 63.5525 21.4855 59.7471 21.4855 55.0536C21.4855 50.3601 25.2909 46.5559 29.9832 46.5559C34.6766 46.5547 38.4808 50.3601 38.4808 55.0536Z" fill="#AFAFAF"></path><path d="M34.0356 55.0534C34.0356 57.291 32.2208 59.1058 29.9832 59.1058C27.7456 59.1058 25.9308 57.291 25.9308 55.0534C25.9308 52.8158 27.7456 51.001 29.9832 51.001C32.2208 51.001 34.0356 52.8158 34.0356 55.0534Z" fill="#5B5B5B"></path><path d="M31.4426 48.8905C31.4426 49.5253 30.9274 50.0405 30.2926 50.0405C29.6577 50.0405 29.1426 49.5253 29.1426 48.8905C29.1426 48.2556 29.6577 47.7405 30.2926 47.7405C30.9274 47.7405 31.4426 48.2556 31.4426 48.8905Z" fill="#5B5B5B"></path><path d="M31.4426 61.3473C31.4426 61.9821 30.9274 62.4973 30.2926 62.4973C29.6577 62.4973 29.1426 61.9821 29.1426 61.3473C29.1426 60.7124 29.6577 60.1973 30.2926 60.1973C30.9274 60.196 31.4426 60.7112 31.4426 61.3473Z" fill="#5B5B5B"></path><path d="M25.1699 51.1819C25.705 51.5249 25.8609 52.2358 25.5192 52.7709C25.1762 53.306 24.4652 53.4619 23.9301 53.1201C23.3951 52.7784 23.2392 52.0662 23.5809 51.5311C23.9239 50.996 24.6349 50.8401 25.1699 51.1819Z" fill="#5B5B5B"></path><path d="M24.1509 57.4791C24.6922 57.1473 25.4007 57.3169 25.7325 57.857C26.0642 58.3983 25.8959 59.1068 25.3545 59.4398C24.8132 59.7715 24.1048 59.6019 23.773 59.0619C23.44 58.5205 23.6096 57.8121 24.1509 57.4791Z" fill="#5B5B5B"></path><path d="M35.9962 51.1819C36.5313 51.5249 36.6872 52.2358 36.3455 52.7709C36.0037 53.306 35.2915 53.4619 34.7564 53.1201C34.2214 52.7784 34.0655 52.0662 34.4072 51.5311C34.7502 50.996 35.4612 50.8401 35.9962 51.1819Z" fill="#5B5B5B"></path><path d="M34.9771 57.4791C35.5185 57.1473 36.2269 57.3169 36.5599 57.857C36.8917 58.3983 36.7221 59.1068 36.1808 59.4398C35.6394 59.7715 34.931 59.6019 34.5992 59.0619C34.2662 58.5205 34.4346 57.8121 34.9771 57.4791Z" fill="#5B5B5B"></path><path d="M76.248 54.6091L71.1465 59.7106L67.3622 55.9257L81.0119 42.276C85.1961 43.9091 90.1297 43.0407 93.5091 39.6601C96.7099 36.4606 97.6608 31.8703 96.364 27.8393L90.8481 33.354C89.8869 34.3177 87.5621 33.5606 85.5393 31.6757C83.6685 29.6574 82.9197 27.3434 83.8777 26.3835L89.3942 20.8644C89.1005 20.7697 89.126 20.366 88.8253 20.2974C84.7962 19.0069 80.202 19.9554 77.0019 23.151C73.7217 26.4344 72.8165 31.1818 74.2608 35.2871L60.4916 49.0563L49.9556 38.5203L48.2239 33.3177L39.0953 27.2367L38.4742 27.8577L37.8137 28.5182C37.3528 28.9804 36.8583 29.4737 36.5334 29.7985V29.8004L36.0738 30.26L42.1562 39.3893L47.3575 41.1209L57.8922 51.6557L43.5604 65.9862C39.6325 64.6761 35.1317 65.573 32.0035 68.7C28.9102 71.7927 27.9909 76.2318 29.2433 80.1292L34.5742 74.7938C35.5125 73.86 37.7832 74.6126 39.7469 76.465C41.5262 78.402 42.2369 80.6155 41.3171 81.536L35.9823 86.8702C36.2677 86.9604 36.2436 87.3526 36.5328 87.4188C40.429 88.6666 44.8687 87.7487 47.9614 84.6573C51.1837 81.4343 52.0375 76.7505 50.5461 72.7405L64.761 58.5257L68.5446 62.3087L63.4158 67.4388L66.8499 70.8773L79.6808 58.0495L76.248 54.6091ZM104.163 82.3236L84.1313 62.2858L84.0201 62.3977C77.0077 65.0651 79.7564 58.1188 79.7564 58.1188L73.3073 64.4955L66.8524 70.8773C66.8524 70.8773 73.9303 68.2595 71.2387 75.1829L71.1262 75.2954L91.2651 95.0878C93.1359 96.9231 97.5394 95.5582 101.099 92.0358C104.662 88.5115 106.034 84.1614 104.163 82.3236ZM74.393 72.0273L77.6319 68.7509L80.8238 65.5946L74.393 72.0273Z" fill="#808080"></path><path d="M63.9834 61.7085L42.6551 40.3802L37.4525 38.6485L31.3715 29.5205L34.3923 26.4978L43.5203 32.5776L45.2519 37.7814L66.5828 59.1104L63.9834 61.7085Z" fill="#797E89"></path><path d="M79.4271 61.5464L99.4585 81.5835C101.331 83.4213 99.9589 87.7708 96.3945 91.2951C92.8359 94.8175 88.4336 96.1823 86.5602 94.3471L66.4226 74.5566L79.4271 61.5464Z" fill="#2C2E36"></path><path d="M86.1794 92.9796C87.7509 94.525 91.8085 93.129 95.0404 89.9327C97.287 87.7109 98.7357 84.9832 98.7338 82.9839C98.7313 82.2217 98.5247 81.6292 98.1127 81.2173C98.6645 81.7665 98.9766 82.0831 98.9766 82.0857C99.3911 82.4976 99.5984 83.0875 99.5984 83.8485C99.6035 85.8477 98.1534 88.5761 95.9056 90.8011C92.675 93.9929 88.6173 95.3908 87.0452 93.8505C87.0452 93.8505 87.5093 94.2046 86.5596 93.2663C86.5628 93.265 86.1756 92.9796 86.1794 92.9796Z" fill="#5D626C"></path><path d="M62.1482 70.1359L68.6018 63.7541L75.0522 57.3794C75.0522 57.3794 72.2863 64.3663 79.375 61.636L72.9277 68.0108L66.5135 74.5C69.268 67.5016 62.1482 70.1359 62.1482 70.1359Z" fill="#5D626C"></path><path d="M67.1073 69.7749C67.0246 69.6904 66.9337 69.6148 66.8352 69.5429C66.134 69.0223 65.1951 68.918 64.3064 68.9784C64.581 68.7108 64.876 68.4171 65.1856 68.112C66.066 68.0535 67.0049 68.1539 67.701 68.672C67.8002 68.7451 67.8911 68.8252 67.9731 68.9085C68.537 69.4698 68.7321 70.3096 68.6476 71.3502C68.3481 71.6547 68.0545 71.9522 67.7805 72.2268C67.8695 71.1805 67.6686 70.3407 67.1073 69.7749Z" fill="#D7D8DA"></path><path d="M77.1405 73.9932C76.6625 73.5177 76.6625 72.7428 77.1405 72.266C77.6147 71.7886 78.3928 71.7886 78.8671 72.266C78.883 72.2851 78.8887 72.308 78.9039 72.3232L78.916 72.3137L89.8411 83.2375L89.829 83.247C90.2601 83.7283 90.2556 84.4593 89.7922 84.9183C89.3313 85.3817 88.6002 85.3874 88.1234 84.9571L88.1101 84.9666L77.185 74.0428L77.1971 74.0314C77.1793 74.0161 77.1583 74.011 77.1405 73.9932Z" fill="#FFCE67"></path><path d="M74.4979 76.6341C74.0192 76.1625 74.0192 75.3863 74.4979 74.9108C74.976 74.4321 75.7483 74.4321 76.2251 74.9108C76.2423 74.9254 76.2467 74.9476 76.262 74.9667L76.2715 74.9565L87.1966 85.8791L87.1864 85.8905C87.6174 86.3717 87.6105 87.1041 87.1515 87.5618C86.6887 88.0277 85.9564 88.0303 85.4783 87.6018L85.4682 87.6101L74.5443 76.6856L74.5526 76.6767C74.5367 76.6595 74.5151 76.6545 74.4979 76.6341Z" fill="#FFCE67"></path><path d="M79.7825 71.3501C79.3083 70.8733 79.3083 70.0997 79.7838 69.6229C80.2593 69.1461 81.0329 69.1461 81.5097 69.6254C81.5275 69.6394 81.5332 69.6642 81.5504 69.6814L81.5606 69.6693L92.4837 80.5957L92.4723 80.6026C92.9007 81.0851 92.8963 81.8174 92.4341 82.2771C91.9745 82.7392 91.2435 82.743 90.7635 82.3165L90.7515 82.3235L79.827 71.399L79.8385 71.3907C79.8226 71.3736 79.799 71.3679 79.7825 71.3501Z" fill="#FFCE67"></path><path d="M78.4933 72.8218C78.2225 72.5529 77.7864 72.5529 77.5144 72.823C77.4489 72.886 77.4057 72.961 77.372 73.0411C77.2766 72.7798 77.323 72.5039 77.5144 72.3145C77.7864 72.0449 78.2225 72.0449 78.4933 72.3145L89.4642 83.2853C89.6237 83.4773 89.6587 83.7494 89.5678 83.9827C89.5405 83.9166 89.5119 83.8498 89.4642 83.7964L78.4933 72.8218Z" fill="#E0915F"></path><path d="M75.85 75.4663C75.5823 75.1942 75.1418 75.1942 74.8697 75.4663C74.8087 75.5279 74.7642 75.6036 74.7274 75.6824C74.632 75.4256 74.6809 75.1497 74.8697 74.9552C75.1418 74.6875 75.5804 74.6844 75.8512 74.9564L86.8228 85.928C86.9772 86.1212 87.0141 86.3939 86.927 86.6253C86.8984 86.5592 86.8685 86.4918 86.8215 86.439L75.85 75.4663Z" fill="#E0915F"></path><path d="M81.1378 70.1784C80.8658 69.9082 80.4271 69.9082 80.1576 70.1784C80.0927 70.2439 80.0463 70.3164 80.0177 70.3965C79.9173 70.1409 79.9662 69.8619 80.1576 69.6692C80.4271 69.4022 80.8658 69.4022 81.1378 69.6692L92.1074 80.6458C92.2663 80.8333 92.2994 81.1092 92.2123 81.3406C92.1862 81.2752 92.1551 81.2097 92.1087 81.1512L81.1378 70.1784Z" fill="#E0915F"></path><path d="M71.537 53.8927L58.7037 66.7188L62.1397 70.1566L74.973 57.3306L71.537 53.8927Z" fill="#2C2E36"></path><path d="M71.5413 54.8533C71.7676 55.0764 72.0759 55.3872 72.4097 55.7216C71.5362 56.5925 61.4344 66.6944 60.5603 67.5653C60.2266 67.2296 59.9163 66.922 59.697 66.7039C60.5698 65.8273 70.6692 55.7254 71.5413 54.8533Z" fill="#FFCE67"></path><path d="M44.0048 37.6486C44.0048 37.6486 42.4531 32.994 42.2986 32.5287C41.8937 32.2573 34.8654 27.5754 33.9341 26.9556C33.3931 27.4972 32.3728 28.5168 31.83 29.0597C32.4498 29.9891 37.1329 37.0193 37.4025 37.4236C37.8672 37.5774 42.523 39.1285 42.523 39.1285L44.0048 37.6486Z" fill="#5D626C"></path><path d="M69.9382 34.1504L37.2407 66.8572L44.1114 73.7259L76.8089 41.0191L69.9382 34.1504Z" fill="#2C2E36"></path><path d="M47.2729 66.2646C46.5666 66.9721 45.4167 66.9721 44.7085 66.2646C44.001 65.5577 44.001 64.4097 44.7085 63.7015L66.0514 42.3573C66.7621 41.6478 67.9096 41.6478 68.619 42.3573C69.324 43.0667 69.324 44.2154 68.619 44.9217L47.2729 66.2646Z" fill="#797E89"></path><path d="M73.7689 42.2105L45.5518 70.2368L45.9169 70.6044L74.1341 42.5781L73.7689 42.2105Z" fill="#5D626C"></path><path d="M72.2991 22.4111C67.7424 26.9709 67.7424 34.3609 72.2991 38.922C76.8596 43.48 84.247 43.48 88.8056 38.9195C92.0057 35.722 92.9567 31.1297 91.6605 27.0987L86.144 32.6146C85.1383 33.6216 82.6349 32.7482 80.553 30.6656C78.4717 28.5856 77.5983 26.079 78.6046 25.0721L84.1224 19.5581C80.0927 18.2669 75.4992 19.2154 72.2991 22.4111Z" fill="#797E89"></path><path d="M80.553 30.6657C80.6483 30.7623 80.7462 30.8563 80.8441 30.9447C78.9656 28.9251 78.2142 26.6042 79.1735 25.643L84.6901 20.1239C84.3964 20.0292 84.4212 19.6255 84.1218 19.5581L78.6039 25.0722C77.5989 26.0797 78.4717 28.5857 80.553 30.6657Z" fill="#2C2E36"></path><path d="M88.3581 37.9023C83.898 42.3649 76.639 42.3649 72.177 37.9023C70.9876 36.7161 70.1224 35.3309 69.5649 33.851C70.0837 35.6475 71.048 37.341 72.4612 38.7586C76.9238 43.2218 84.1841 43.2218 88.6454 38.7598C91.595 35.8083 92.6776 31.5447 91.5391 27.543C91.5232 27.5627 91.5009 27.5843 91.4711 27.6116C92.2078 31.3355 91.0871 35.1789 88.3581 37.9023Z" fill="#979DAB"></path><path d="M72.8222 37.8261C72.9633 37.9716 73.1152 38.109 73.2608 38.2418C69.575 34.111 69.7136 27.7535 73.6778 23.7918C75.6046 21.8631 78.1366 20.8129 80.7633 20.7341C81.0334 20.4595 81.2986 20.1988 81.542 19.9541C78.3578 19.558 75.1475 20.6088 72.8241 22.9349C68.7162 27.0415 68.7162 33.7207 72.8222 37.8261Z" fill="#979DAB"></path><path d="M74.3575 31.1924C75.0809 30.4684 76.2982 30.5135 77.0751 31.2878L79.9605 34.1758C80.7367 34.9545 80.7812 36.1693 80.0565 36.8908C79.3305 37.6206 78.117 37.5729 77.3402 36.7968L74.4541 33.9107C73.6785 33.1338 73.6328 31.9171 74.3575 31.1924Z" fill="url(#paint0_radial_911_1877)"></path><path d="M74.3574 31.1925C75.0726 30.4767 76.283 30.5257 77.0604 31.3057L79.9459 34.1892C80.7233 34.9673 80.7735 36.1764 80.0571 36.8909C79.3438 37.6118 78.1316 37.5584 77.3554 36.7835L74.4693 33.8974C73.6899 33.1174 73.6416 31.9077 74.3574 31.1925Z" fill="#979DAB"></path><path d="M43.2597 83.9178C47.6645 79.5093 47.6632 72.3653 43.2597 67.9593C38.8505 63.5514 31.7097 63.5526 27.3012 67.9593C24.2098 71.0519 23.2893 75.4923 24.541 79.3891L29.8726 74.0537C30.8471 73.0817 33.2659 73.9215 35.2798 75.9373C37.2931 77.9486 38.1379 80.3719 37.1666 81.3458L31.8312 86.6786C35.7255 87.9259 40.1664 87.0092 43.2597 83.9178Z" fill="#797E89"></path><path d="M35.2792 75.938C35.1889 75.8458 35.0936 75.7575 34.9995 75.6716C36.8144 77.6213 37.5423 79.8666 36.6142 80.7954L31.28 86.1295C31.5655 86.2204 31.5394 86.612 31.8299 86.6794L37.1653 81.3465C38.1379 80.3726 37.2931 77.9493 35.2792 75.938Z" fill="#2C2E36"></path><path d="M27.7329 68.9428C32.0467 64.6283 39.0642 64.6283 43.3761 68.9428C44.5248 70.089 45.3658 71.4284 45.903 72.86C45.4014 71.1233 44.4676 69.4825 43.1034 68.1139C38.7902 63.8032 31.7708 63.8032 27.4589 68.1139C24.6052 70.9675 23.5614 75.09 24.6599 78.9595C24.6758 78.9398 24.7006 78.9182 24.7254 78.8921C24.0128 75.2928 25.0966 71.5727 27.7329 68.9428Z" fill="#979DAB"></path><path d="M42.7544 69.0152C42.6184 68.8753 42.4728 68.7418 42.3272 68.616C45.8916 72.6081 45.76 78.7541 41.928 82.5867C40.0641 84.4499 37.6142 85.462 35.0758 85.5427C34.8139 85.8065 34.5571 86.0595 34.3225 86.2966C37.4025 86.6799 40.5066 85.6609 42.7525 83.4118C46.7224 79.44 46.7224 72.9851 42.7544 69.0152Z" fill="#979DAB"></path><path d="M41.2675 75.4294C40.5701 76.1306 39.3935 76.0855 38.6402 75.3366L35.8501 72.5453C35.1025 71.792 35.0593 70.6185 35.7598 69.9179C36.4591 69.2168 37.6338 69.2594 38.3859 70.0108L41.1759 72.8008C41.9267 73.5503 41.9699 74.7302 41.2675 75.4294Z" fill="url(#paint1_radial_911_1877)"></path><path d="M41.2675 75.4294C40.5784 76.1229 39.4068 76.0708 38.6567 75.3232L35.8654 72.5319C35.1152 71.7799 35.0676 70.6102 35.7605 69.9185C36.4483 69.2256 37.6224 69.2726 38.3713 70.0247L41.1626 72.816C41.9159 73.5706 41.963 74.7377 41.2675 75.4294Z" fill="#979DAB"></path><path d="M75.7788 34.5769L75.454 34.2495L76.6891 33.0112C76.4596 33.0061 76.2333 32.9476 76.0172 32.8402L76.3179 32.5408C76.4311 32.598 76.5747 32.6386 76.7527 32.6596C76.9301 32.6812 77.0909 32.6596 77.2307 32.591L77.4984 32.8561L75.7788 34.5769Z" fill="#D7D8DA"></path><path d="M76.7069 34.6056L77.0629 34.8854C76.9923 34.9769 76.9568 35.0633 76.9593 35.1504C76.9625 35.2363 76.9924 35.3138 77.0572 35.3761C77.1214 35.4422 77.2078 35.4734 77.3064 35.4645C77.4036 35.4613 77.4952 35.4155 77.5861 35.3272C77.6675 35.2439 77.712 35.1561 77.7164 35.0633C77.719 34.9686 77.6903 34.8898 77.6261 34.8268C77.5854 34.7849 77.527 34.7442 77.4526 34.7023L77.7533 34.4728C77.8391 34.5637 77.9256 34.6139 78.0165 34.6203C78.101 34.6234 78.1786 34.5948 78.2479 34.5268C78.3051 34.4683 78.3318 34.4035 78.3318 34.3355C78.335 34.2706 78.3051 34.2064 78.2479 34.1505C78.1906 34.0933 78.1239 34.0647 78.047 34.0647C77.9682 34.0647 77.8862 34.0958 77.8022 34.1638L77.5518 33.8104C77.6763 33.7271 77.7921 33.6731 77.8957 33.6578C78.0012 33.6349 78.1086 33.6458 78.2205 33.6864C78.3318 33.7271 78.4366 33.7926 78.5301 33.8873C78.689 34.0481 78.7691 34.2287 78.7622 34.4302C78.7583 34.5948 78.7024 34.7296 78.5994 34.8339C78.45 34.9845 78.2453 35.0227 77.9929 34.947C78.066 35.0665 78.0991 35.193 78.0845 35.3246C78.0686 35.4537 78.0082 35.5738 77.9065 35.6787C77.7558 35.8262 77.5728 35.8999 77.3566 35.8961C77.1418 35.8929 76.9497 35.8103 76.787 35.6456C76.6338 35.4905 76.5493 35.3208 76.5347 35.1288C76.5219 34.9426 76.5811 34.7646 76.7069 34.6056Z" fill="#D7D8DA"></path><path d="M39.7755 72.3418L40.1004 72.6653L38.8652 73.905C39.0947 73.9094 39.3191 73.9692 39.5359 74.0766L39.2378 74.3773C39.1221 74.3169 38.9771 74.2794 38.7991 74.2578C38.6243 74.2349 38.4635 74.2578 38.3224 74.3252L38.0573 74.0588L39.7755 72.3418Z" fill="#D7D8DA"></path><path d="M38.8442 72.2809L38.4845 71.9873C38.5512 71.9027 38.5779 71.8188 38.5753 71.7304C38.5741 71.6389 38.5398 71.5658 38.4819 71.5054C38.4126 71.438 38.3268 71.4062 38.2238 71.417C38.1208 71.424 38.0121 71.4844 37.9002 71.5963C37.7928 71.7018 37.7388 71.8042 37.7331 71.9027C37.7273 72.0063 37.7642 72.0934 37.836 72.1665C37.9327 72.2612 38.0592 72.3064 38.2168 72.2956L38.4418 72.5988L37.3834 73.3235L36.517 72.4564L36.8221 72.1513L37.4432 72.7698L37.7833 72.5289C37.6758 72.492 37.5837 72.4392 37.5067 72.3604C37.3618 72.2161 37.2906 72.0394 37.2976 71.8315C37.3008 71.6255 37.3879 71.438 37.5557 71.2664C37.6975 71.1271 37.864 71.0407 38.0572 71.0133C38.3192 70.9733 38.5506 71.0515 38.7476 71.2498C38.9053 71.4062 38.9911 71.5785 39.0057 71.7609C39.0197 71.9453 38.9682 72.1188 38.8442 72.2809Z" fill="#D7D8DA"></path><path d="M45.479 64.4732L66.8219 43.129C67.3966 42.5576 68.2529 42.4533 68.9362 42.8086C68.8517 42.6465 68.7525 42.4933 68.6184 42.3573C67.9089 41.6478 66.7615 41.6478 66.0508 42.3573L44.7079 63.7015C44.0004 64.4097 44.0004 65.5577 44.7079 66.2646C44.8427 66.4006 44.9978 66.5011 45.1593 66.5837C44.8052 65.9016 44.9069 65.046 45.479 64.4732Z" fill="#5D626C"></path><path d="M58.7084 51.2285L56.1095 53.8267L57.9041 55.6218L60.5031 53.0236L58.7084 51.2285Z" fill="#5D626C"></path><defs><radialGradient id="paint0_radial_911_1877" cx="0" cy="0" r="1" gradientUnits="userSpaceOnUse" gradientTransform="translate(77.7223 33.6637) rotate(-135) scale(3.17755 2.96263)"><stop stop-color="#D0D1D5"></stop><stop offset="0.2138" stop-color="#AFB1B6"></stop><stop offset="0.5752" stop-color="#7C8087"></stop><stop offset="0.8485" stop-color="#5C6169"></stop><stop offset="1" stop-color="#50565E"></stop></radialGradient><radialGradient id="paint1_radial_911_1877" cx="0" cy="0" r="1" gradientUnits="userSpaceOnUse" gradientTransform="translate(38.343 72.8456) rotate(45) scale(3.07281 2.86523)"><stop stop-color="#D0D1D5"></stop><stop offset="0.2138" stop-color="#AFB1B6"></stop><stop offset="0.5752" stop-color="#7C8087"></stop><stop offset="0.8485" stop-color="#5C6169"></stop><stop offset="1" stop-color="#50565E"></stop></radialGradient></defs></svg> 